<?xml version="1.0" encoding="utf-8"?>
<!-- Generator: Adobe Illustrator 18.1.1, SVG Export Plug-In . SVG Version: 6.00 Build 0)  -->
<!DOCTYPE svg PUBLIC "-//W3C//DTD SVG 1.1//EN" "http://www.w3.org/Graphics/SVG/1.1/DTD/svg11.dtd">
<svg version="1.1" id="Layer_1" xmlns="http://www.w3.org/2000/svg" xmlns:xlink="http://www.w3.org/1999/xlink" x="0px" y="0px"
	 viewBox="261.5 0 468.3 468.3" enable-background="new 261.5 0 468.3 468.3" xml:space="preserve">
<g>
	<g>
		<g>
			<circle fill="#32849C" cx="495.6" cy="234.1" r="234.1"/>
			<circle fill="#32859D" cx="495.6" cy="234.1" r="233.1"/>
			<circle fill="#32869E" cx="495.6" cy="234.1" r="232.1"/>
			<circle fill="#33869F" cx="495.6" cy="234.1" r="231"/>
			<circle fill="#3387A0" cx="495.6" cy="234.1" r="230"/>
			<circle fill="#3388A1" cx="495.6" cy="234.1" r="228.9"/>
			<circle fill="#3389A2" cx="495.6" cy="234" r="227.9"/>
			<circle fill="#348AA3" cx="495.6" cy="234" r="226.8"/>
			<circle fill="#348AA4" cx="495.5" cy="234" r="225.8"/>
			<circle fill="#348BA5" cx="495.5" cy="234" r="224.8"/>
			<circle fill="#348CA6" cx="495.5" cy="234" r="223.7"/>
			<circle fill="#348DA7" cx="495.5" cy="234" r="222.7"/>
			<circle fill="#358EA8" cx="495.5" cy="233.9" r="221.6"/>
			<circle fill="#358EA9" cx="495.5" cy="233.9" r="220.6"/>
			<circle fill="#358FAA" cx="495.5" cy="233.9" r="219.5"/>
			<circle fill="#3590AB" cx="495.5" cy="233.9" r="218.5"/>
			<circle fill="#3691AC" cx="495.5" cy="233.9" r="217.4"/>
			<circle fill="#3692AD" cx="495.5" cy="233.8" r="216.4"/>
			<circle fill="#3693AE" cx="495.4" cy="233.8" r="215.4"/>
			<circle fill="#3693AE" cx="495.4" cy="233.8" r="214.3"/>
			<circle fill="#3694AF" cx="495.4" cy="233.8" r="213.3"/>
			<circle fill="#3795B0" cx="495.4" cy="233.8" r="212.2"/>
			<circle fill="#3796B1" cx="495.4" cy="233.8" r="211.2"/>
			<circle fill="#3797B2" cx="495.4" cy="233.7" r="210.1"/>
			<circle fill="#3797B3" cx="495.4" cy="233.7" r="209.1"/>
			<circle fill="#3898B4" cx="495.4" cy="233.7" r="208"/>
			<circle fill="#3899B5" cx="495.4" cy="233.7" r="207"/>
			<circle fill="#389AB6" cx="495.4" cy="233.7" r="206"/>
			<circle fill="#389BB7" cx="495.3" cy="233.7" r="204.9"/>
			<circle fill="#389BB8" cx="495.3" cy="233.6" r="203.9"/>
			<circle fill="#399CB9" cx="495.3" cy="233.6" r="202.8"/>
			<circle fill="#399DBA" cx="495.3" cy="233.6" r="201.8"/>
			<circle fill="#399EBB" cx="495.3" cy="233.6" r="200.7"/>
			<circle fill="#399FBC" cx="495.3" cy="233.6" r="199.7"/>
			<circle fill="#3A9FBD" cx="495.3" cy="233.5" r="198.7"/>
			<circle fill="#3AA0BE" cx="495.3" cy="233.5" r="197.6"/>
			<circle fill="#3AA1BF" cx="495.3" cy="233.5" r="196.6"/>
		</g>
		<g>
			<path fill="none" d="M494.6,34.7c-53.3,0-103.3,20.7-141,58.4c-37.7,37.7-58.4,87.7-58.4,141s20.7,103.3,58.4,141
				c37.7,37.7,87.7,58.4,141,58.4s103.3-20.7,141-58.4c37.7-37.7,58.4-87.7,58.4-141s-20.7-103.3-58.4-141
				C597.9,55.5,547.8,34.7,494.6,34.7z"/>
			<path fill="#FFFFFF" d="M692.8,150.4c-10.8-25.6-26.3-48.6-46.1-68.4s-42.8-35.3-68.4-46.1C551.8,24.7,523.6,19,494.6,19
				s-57.2,5.7-83.7,16.9c-25.6,10.8-48.6,26.3-68.4,46.1c-19.8,19.8-35.3,42.8-46.1,68.4c-11.2,26.5-16.9,54.7-16.9,83.7
				s5.7,57.2,16.9,83.7c10.8,25.6,26.3,48.6,46.1,68.4c19.8,19.8,42.8,35.3,68.4,46.1c26.5,11.2,54.7,16.9,83.7,16.9
				s57.2-5.7,83.7-16.9c25.6-10.8,48.6-26.3,68.4-46.1c19.8-19.8,35.3-42.8,46.1-68.4c11.2-26.5,16.9-54.7,16.9-83.7
				S704,176.9,692.8,150.4z M694,234.1c0,53.3-20.7,103.3-58.4,141c-37.7,37.7-87.7,58.4-141,58.4s-103.3-20.7-141-58.4
				c-37.7-37.7-58.4-87.7-58.4-141s20.7-103.3,58.4-141c37.7-37.7,87.7-58.4,141-58.4s103.3,20.7,141,58.4
				C673.2,130.8,694,180.9,694,234.1z"/>
		</g>
	</g>
	<g>
		<g>
			<path fill="#FFFFFF" d="M598.4,329L505,106.9c-1.2-3.1-5-5.1-9.2-5.1c-3.8,0-7.7,2.1-9.2,5.1c0,0-93.4,222.1-93.4,222.1
				c-1,2.3-0.7,4.7,0.5,6.8c0.6,1.1,1.5,2.1,2.5,2.8c2.8,2.1,7.4,2.1,10.4,0.6c1.9-0.9,3.4-2.5,4.2-4.4l23.8-56.5l6.9-16.8
				l54.6-128.7l54.2,128.7l6.9,16.8l23.8,56.5c0.9,2,2.6,3.5,4.5,4.4c2.3,1.1,4.4,1.1,6.9,0.8C597.4,339.4,600.5,333.4,598.4,329z"
				/>
		</g>
		<path fill="#FFFFFF" d="M526.4,233.4c-2.9-1-6.7,0.1-7.8,2.7c0,0-2.8,4.8-2.8,4.8l-5.7,10l-8.3-15c-0.9-1.8-3.2-2.9-5.7-2.9
			c-2.5,0-4.7,1.1-5.7,2.9l-8.2,15l-5.4-9.5c0,0-3.1-5.3-3.1-5.3c-1.3-2.6-4.9-3.7-7.7-2.7c-3.3,1.1-4.8,3.8-3.4,6.2
			c0,0,3.2,6,3.2,6c0.2,0.4,0.5,0.8,0.7,1.2c0.6,1.1,1.2,2.1,1.8,3.2c0.8,1.4,1.6,2.8,2.3,4.2c0.8,1.5,1.6,3,2.4,4.4
			c0.7,1.3,1.4,2.5,2.1,3.8c0.4,0.8,0.8,1.5,1.2,2.3c1.4,2.5,4.7,3.5,7.4,3c0.9-0.2,1.7-0.5,2.5-1.1c1.2-0.8,1.9-2,2.5-3.2
			c0.2-0.3,0.3-0.6,0.5-0.9c0.8-1.5,1.6-3,2.4-4.4c0.8-1.6,1.7-3.2,2.5-4.7c0.6-1.1,1.2-2.2,1.8-3.3c0.1-0.2,0.2-0.4,0.3-0.5
			c0,0,8.5,15.4,8.5,15.5c0.6,1.1,1.9,2,3,2.4c2.5,1,5.9,0.4,7.7-1.7c0.9-1,1.4-2.3,2.1-3.5c0.5-0.8,0.9-1.6,1.4-2.5
			c1.1-1.9,2.1-3.8,3.2-5.7c0.9-1.6,1.8-3.3,2.7-4.9c0.1-0.1,1.1-1.9,1-1.9c0,0,4.2-7.7,4.2-7.7
			C531.2,237.2,529.6,234.5,526.4,233.4z"/>
	</g>
</g>
</svg>
