<?xml version="1.0" encoding="utf-8"?>
<!-- Generator: Adobe Illustrator 18.1.1, SVG Export Plug-In . SVG Version: 6.00 Build 0)  -->
<!DOCTYPE svg PUBLIC "-//W3C//DTD SVG 1.1//EN" "http://www.w3.org/Graphics/SVG/1.1/DTD/svg11.dtd">
<svg version="1.1" id="Layer_1" xmlns="http://www.w3.org/2000/svg" xmlns:xlink="http://www.w3.org/1999/xlink" x="0px" y="0px"
	 viewBox="240.4 41.2 480 480" enable-background="new 240.4 41.2 480 480" xml:space="preserve">
<g>
	<g>
		<g>
			<circle fill="#D14545" cx="480.3" cy="281.2" r="240"/>
			<circle fill="#D24545" cx="480.3" cy="281.1" r="238.9"/>
			<circle fill="#D34646" cx="480.3" cy="281.1" r="237.7"/>
			<circle fill="#D44646" cx="480.3" cy="281.1" r="236.6"/>
			<circle fill="#D54747" cx="480.3" cy="281.1" r="235.5"/>
			<circle fill="#D64747" cx="480.3" cy="281.1" r="234.3"/>
			<circle fill="#D74747" cx="480.3" cy="281" r="233.2"/>
			<circle fill="#D84848" cx="480.3" cy="281" r="232.1"/>
			<circle fill="#D94848" cx="480.2" cy="281" r="230.9"/>
			<circle fill="#DA4848" cx="480.2" cy="281" r="229.8"/>
			<circle fill="#DB4949" cx="480.2" cy="281" r="228.7"/>
			<circle fill="#DC4949" cx="480.2" cy="280.9" r="227.5"/>
			<circle fill="#DD4A4A" cx="480.2" cy="280.9" r="226.4"/>
			<circle fill="#DE4A4A" cx="480.2" cy="280.9" r="225.3"/>
			<circle fill="#DF4A4A" cx="480.2" cy="280.9" r="224.1"/>
			<circle fill="#E04B4B" cx="480.2" cy="280.9" r="223"/>
			<circle fill="#E14B4B" cx="480.2" cy="280.9" r="221.9"/>
			<circle fill="#E24C4C" cx="480.1" cy="280.8" r="220.7"/>
			<circle fill="#E24C4C" cx="480.1" cy="280.8" r="219.6"/>
			<circle fill="#E34C4C" cx="480.1" cy="280.8" r="218.5"/>
			<circle fill="#E44D4D" cx="480.1" cy="280.8" r="217.3"/>
			<circle fill="#E54D4D" cx="480.1" cy="280.8" r="216.2"/>
			<circle fill="#E64D4D" cx="480.1" cy="280.7" r="215.1"/>
			<circle fill="#E74E4E" cx="480.1" cy="280.7" r="213.9"/>
			<circle fill="#E84E4E" cx="480.1" cy="280.7" r="212.8"/>
			<circle fill="#E94F4F" cx="480.1" cy="280.7" r="211.7"/>
			<circle fill="#EA4F4F" cx="480" cy="280.7" r="210.5"/>
			<circle fill="#EB4F4F" cx="480" cy="280.6" r="209.4"/>
			<circle fill="#EC5050" cx="480" cy="280.6" r="208.3"/>
			<circle fill="#ED5050" cx="480" cy="280.6" r="207.1"/>
			<circle fill="#EE5050" cx="480" cy="280.6" r="206"/>
			<circle fill="#EF5151" cx="480" cy="280.6" r="204.9"/>
			<circle fill="#F05151" cx="480" cy="280.5" r="203.7"/>
			<circle fill="#F15252" cx="480" cy="280.5" r="202.6"/>
			<circle fill="#F25252" cx="480" cy="280.5" r="201.5"/>
		</g>
		<g>
			<path fill="none" d="M479.3,76.8c-54.6,0-105.9,21.3-144.5,59.9c-38.6,38.6-59.9,89.9-59.9,144.5s21.3,105.9,59.9,144.5
				c38.6,38.6,89.9,59.9,144.5,59.9s105.9-21.3,144.5-59.9c38.6-38.6,59.9-89.9,59.9-144.5s-21.3-105.9-59.9-144.5
				C585.2,98,533.8,76.8,479.3,76.8z"/>
			<path fill="#FFFFFF" d="M682.4,195.3c-11.1-26.3-27-49.8-47.3-70.1C614.9,105,591.3,89.1,565.1,78
				c-27.2-11.5-56.1-17.3-85.8-17.3s-58.6,5.8-85.8,17.3c-26.3,11.1-49.8,27-70.1,47.3c-20.2,20.2-36.1,43.8-47.3,70.1
				c-11.5,27.2-17.3,56.1-17.3,85.8s5.8,58.6,17.3,85.8c11.1,26.3,27,49.8,47.3,70.1c20.2,20.2,43.8,36.1,70.1,47.3
				c27.2,11.5,56.1,17.3,85.8,17.3s58.6-5.8,85.8-17.3c26.3-11.1,49.8-27,70.1-47.3c20.2-20.2,36.1-43.8,47.3-70.1
				c11.5-27.2,17.3-56.1,17.3-85.8S693.9,222.5,682.4,195.3z M683.6,281.2c0,54.6-21.3,105.9-59.9,144.5
				c-38.6,38.6-89.9,59.9-144.5,59.9s-105.9-21.3-144.5-59.9c-38.6-38.6-59.9-89.9-59.9-144.5s21.3-105.9,59.9-144.5
				c38.6-38.6,89.9-59.9,144.5-59.9S585.2,98,623.8,136.6C662.4,175.2,683.6,226.6,683.6,281.2z"/>
		</g>
	</g>
	<g>
		<g>
			<path fill="#FFFFFF" d="M585.7,378.4l-95.8-227.7c-1.2-3.2-5.1-5.3-9.5-5.3c-3.9,0-7.9,2.1-9.5,5.3c0,0-95.8,227.6-95.8,227.7
				c-1,2.3-0.8,4.8,0.5,7c0.7,1.1,1.5,2.1,2.6,2.9c2.9,2.2,7.6,2.2,10.7,0.6c1.9-1,3.5-2.6,4.4-4.5l24.4-57.9l7.1-17.2l56-131.9
				l55.6,131.9l7.1,17.2l24.4,57.9c0.9,2,2.6,3.6,4.6,4.5c2.3,1.1,4.6,1.1,7.1,0.8C584.7,389,587.8,382.9,585.7,378.4z"/>
		</g>
		<path fill="#FFFFFF" d="M511.9,280.4c-3-1-6.8,0.1-8,2.8c0,0-2.9,4.9-2.9,4.9l-5.9,10.2l-8.5-15.3c-1-1.8-3.2-2.9-5.9-2.9
			c-2.5,0-4.8,1.1-5.9,2.9l-8.4,15.3l-5.6-9.7c0,0-3.2-5.4-3.2-5.4c-1.3-2.7-5-3.8-7.9-2.8c-3.4,1.1-4.9,3.9-3.5,6.3
			c0,0,3.3,6.2,3.3,6.2c0.2,0.4,0.5,0.9,0.7,1.3c0.6,1.1,1.2,2.2,1.8,3.2c0.8,1.4,1.6,2.9,2.4,4.3c0.8,1.5,1.7,3,2.5,4.5
			c0.7,1.3,1.4,2.6,2.1,3.9c0.4,0.8,0.9,1.5,1.3,2.3c1.4,2.6,4.8,3.6,7.6,3.1c0.9-0.2,1.8-0.6,2.5-1.1c1.2-0.8,1.9-2,2.6-3.3
			c0.2-0.3,0.3-0.6,0.5-0.9c0.8-1.5,1.6-3,2.4-4.6c0.9-1.6,1.7-3.2,2.6-4.9c0.6-1.1,1.2-2.2,1.8-3.4c0.1-0.2,0.2-0.4,0.3-0.6
			c0,0,8.7,15.8,8.8,15.9c0.6,1.1,1.9,2,3.1,2.5c2.6,1,6,0.4,7.9-1.8c0.9-1,1.4-2.4,2.1-3.6c0.5-0.8,0.9-1.7,1.4-2.5
			c1.1-2,2.2-3.9,3.3-5.9c0.9-1.7,1.9-3.4,2.8-5c0.1-0.1,1.1-1.9,1.1-1.9c0,0,4.3-7.8,4.3-7.8C516.8,284.3,515.1,281.5,511.9,280.4z
			"/>
	</g>
</g>
</svg>
