<?xml version="1.0" encoding="utf-8"?>
<!-- Generator: Adobe Illustrator 18.1.1, SVG Export Plug-In . SVG Version: 6.00 Build 0)  -->
<!DOCTYPE svg PUBLIC "-//W3C//DTD SVG 1.1//EN" "http://www.w3.org/Graphics/SVG/1.1/DTD/svg11.dtd">
<svg version="1.1" id="Layer_1" xmlns="http://www.w3.org/2000/svg" xmlns:xlink="http://www.w3.org/1999/xlink" x="0px" y="0px"
	 viewBox="218.3 20 520.4 520.4" enable-background="new 218.3 20 520.4 520.4" xml:space="preserve">
<g>
	<g>
		<g>
			<circle fill="#F2BA2E" cx="478.5" cy="280.2" r="260.2"/>
			<circle fill="#F2BA2F" cx="478.5" cy="280.2" r="258.9"/>
			<circle fill="#F2BB30" cx="478.5" cy="280.1" r="257.5"/>
			<circle fill="#F2BB31" cx="478.5" cy="280.1" r="256.2"/>
			<circle fill="#F2BC32" cx="478.4" cy="280.1" r="254.8"/>
			<circle fill="#F2BC33" cx="478.4" cy="280.1" r="253.5"/>
			<circle fill="#F1BD34" cx="478.4" cy="280" r="252.1"/>
			<circle fill="#F1BD35" cx="478.4" cy="280" r="250.8"/>
			<circle fill="#F1BE36" cx="478.4" cy="280" r="249.4"/>
			<circle fill="#F1BE37" cx="478.4" cy="280" r="248.1"/>
			<circle fill="#F1BF38" cx="478.4" cy="280" r="246.7"/>
			<circle fill="#F1BF39" cx="478.4" cy="279.9" r="245.4"/>
			<circle fill="#F1C03A" cx="478.3" cy="279.9" r="244"/>
			<circle fill="#F1C03B" cx="478.3" cy="279.9" r="242.7"/>
			<circle fill="#F1C13C" cx="478.3" cy="279.9" r="241.4"/>
			<circle fill="#F1C13D" cx="478.3" cy="279.8" r="240"/>
			<circle fill="#F0C23D" cx="478.3" cy="279.8" r="238.7"/>
			<circle fill="#F0C23E" cx="478.3" cy="279.8" r="237.3"/>
			<circle fill="#F0C33F" cx="478.3" cy="279.8" r="236"/>
			<circle fill="#F0C340" cx="478.3" cy="279.8" r="234.6"/>
			<circle fill="#F0C441" cx="478.2" cy="279.7" r="233.3"/>
			<circle fill="#F0C442" cx="478.2" cy="279.7" r="231.9"/>
			<circle fill="#F0C543" cx="478.2" cy="279.7" r="230.6"/>
			<circle fill="#F0C544" cx="478.2" cy="279.7" r="229.2"/>
			<circle fill="#F0C645" cx="478.2" cy="279.6" r="227.9"/>
			<circle fill="#F0C646" cx="478.2" cy="279.6" r="226.5"/>
			<circle fill="#EFC747" cx="478.2" cy="279.6" r="225.2"/>
			<circle fill="#EFC748" cx="478.2" cy="279.6" r="223.8"/>
			<circle fill="#EFC849" cx="478.1" cy="279.5" r="222.5"/>
			<circle fill="#EFC84A" cx="478.1" cy="279.5" r="221.1"/>
			<circle fill="#EFC94B" cx="478.1" cy="279.5" r="219.8"/>
			<circle fill="#EFC94C" cx="478.1" cy="279.5" r="218.4"/>
		</g>
		<g>
			<path fill="none" d="M477.3,58.6c-59.2,0-114.8,23-156.7,64.9c-41.9,41.9-64.9,97.5-64.9,156.7s23,114.8,64.9,156.7
				c41.9,41.9,97.5,64.9,156.7,64.9s114.8-23.1,156.7-64.9c41.9-41.9,64.9-97.5,64.9-156.7s-23-114.8-64.9-156.7
				C592.2,81.6,536.5,58.6,477.3,58.6z"/>
			<path fill="#FFFFFF" d="M697.6,187.1c-12-28.5-29.3-54-51.2-76s-47.5-39.2-76-51.2c-29.5-12.5-60.8-18.8-93.1-18.8
				s-63.6,6.3-93.1,18.8c-28.5,12-54,29.3-76,51.2c-22,22-39.2,47.5-51.2,76c-12.5,29.5-18.8,60.8-18.8,93.1s6.3,63.6,18.8,93.1
				c12,28.5,29.3,54,51.2,76c22,22,47.5,39.2,76,51.2c29.5,12.5,60.8,18.8,93.1,18.8s63.6-6.3,93.1-18.8c28.5-12,54-29.3,76-51.2
				c22-22,39.2-47.5,51.2-76c12.5-29.5,18.8-60.8,18.8-93.1S710.1,216.6,697.6,187.1z M698.9,280.2c0,59.2-23,114.8-64.9,156.7
				c-41.9,41.9-97.5,64.9-156.7,64.9s-114.8-23.1-156.7-64.9c-41.9-41.9-64.9-97.5-64.9-156.7s23-114.8,64.9-156.7
				c41.9-41.9,97.5-64.9,156.7-64.9s114.8,23,156.7,64.9C675.9,165.3,698.9,221,698.9,280.2z"/>
		</g>
	</g>
	<g>
		<g>
			<path fill="#FFFFFF" d="M592.8,385.6c0,0-103.9-246.8-103.9-246.8c-1.3-3.4-5.6-5.7-10.3-5.7c-4.3,0-8.5,2.3-10.3,5.7
				c0,0-103.8,246.8-103.9,246.8c-1.1,2.5-0.8,5.2,0.6,7.6c0.7,1.2,1.7,2.3,2.8,3.1c3.1,2.3,8.2,2.3,11.6,0.6c2.1-1,3.8-2.8,4.7-4.9
				l26.5-62.8l7.7-18.6l60.7-143l60.3,143l7.7,18.6c0,0,26.5,62.8,26.5,62.8c1,2.2,2.8,3.9,5,4.9c2.5,1.2,4.9,1.2,7.7,0.9
				C591.6,397.1,595.1,390.5,592.8,385.6z"/>
		</g>
		<path fill="#FFFFFF" d="M512.7,279.4c-3.3-1.1-7.4,0.1-8.7,3c0,0-3.1,5.3-3.1,5.3l-6.4,11.1l-9.2-16.6c-1-2-3.5-3.2-6.4-3.2
			c-2.7,0-5.2,1.2-6.4,3.2l-9.1,16.6l-6-10.5c0,0-3.5-5.9-3.5-5.9c-1.4-2.9-5.5-4.1-8.6-3c-3.6,1.2-5.3,4.2-3.8,6.9
			c0,0,3.6,6.7,3.6,6.7c0.3,0.5,0.5,0.9,0.8,1.4c0.6,1.2,1.3,2.3,1.9,3.5c0.9,1.6,1.7,3.1,2.6,4.7c0.9,1.6,1.8,3.3,2.7,4.9
			c0.8,1.4,1.5,2.8,2.3,4.2c0.5,0.8,0.9,1.7,1.4,2.5c1.6,2.8,5.2,3.9,8.2,3.3c1-0.2,1.9-0.6,2.8-1.2c1.3-0.9,2.1-2.2,2.8-3.6
			c0.2-0.3,0.3-0.7,0.5-1c0.9-1.6,1.8-3.3,2.7-4.9c0.9-1.8,1.9-3.5,2.8-5.3c0.7-1.2,1.3-2.4,2-3.6c0.1-0.2,0.2-0.4,0.3-0.6
			c0,0,9.5,17.2,9.5,17.2c0.7,1.2,2.1,2.2,3.4,2.7c2.8,1.1,6.5,0.4,8.5-1.9c1-1.1,1.6-2.6,2.3-3.9c0.5-0.9,1-1.8,1.5-2.7
			c1.2-2.1,2.4-4.2,3.5-6.4c1-1.8,2-3.6,3-5.5c0.1-0.1,1.2-2.1,1.2-2.1c0,0,4.6-8.5,4.6-8.5C518.1,283.6,516.3,280.6,512.7,279.4z"
			/>
	</g>
</g>
</svg>
