<?xml version="1.0" encoding="utf-8"?>
<!-- Generator: Adobe Illustrator 18.1.1, SVG Export Plug-In . SVG Version: 6.00 Build 0)  -->
<!DOCTYPE svg PUBLIC "-//W3C//DTD SVG 1.1//EN" "http://www.w3.org/Graphics/SVG/1.1/DTD/svg11.dtd">
<svg version="1.1" id="Layer_1" xmlns="http://www.w3.org/2000/svg" xmlns:xlink="http://www.w3.org/1999/xlink" x="0px" y="0px"
	 viewBox="412.2 196.1 401.4 401.4" enable-background="new 412.2 196.1 401.4 401.4" xml:space="preserve">
<g>
	<g>
		<circle fill="#F2BA2E" cx="612.9" cy="396.8" r="200.7"/>
		<circle fill="#F2BA2F" cx="612.9" cy="396.8" r="199.7"/>
		<circle fill="#F2BB30" cx="612.8" cy="396.7" r="198.7"/>
		<circle fill="#F2BB31" cx="612.8" cy="396.7" r="197.6"/>
		<circle fill="#F2BC32" cx="612.8" cy="396.7" r="196.6"/>
		<circle fill="#F2BC33" cx="612.8" cy="396.7" r="195.5"/>
		<circle fill="#F1BD34" cx="612.8" cy="396.7" r="194.5"/>
		<circle fill="#F1BD35" cx="612.8" cy="396.7" r="193.5"/>
		<circle fill="#F1BE36" cx="612.8" cy="396.6" r="192.4"/>
		<circle fill="#F1BE37" cx="612.8" cy="396.6" r="191.4"/>
		<circle fill="#F1BF38" cx="612.8" cy="396.6" r="190.3"/>
		<circle fill="#F1BF39" cx="612.8" cy="396.6" r="189.3"/>
		<circle fill="#F1C03A" cx="612.7" cy="396.6" r="188.3"/>
		<circle fill="#F1C03B" cx="612.7" cy="396.6" r="187.2"/>
		<circle fill="#F1C13C" cx="612.7" cy="396.5" r="186.2"/>
		<circle fill="#F1C13D" cx="612.7" cy="396.5" r="185.1"/>
		<circle fill="#F0C23D" cx="612.7" cy="396.5" r="184.1"/>
		<circle fill="#F0C23E" cx="612.7" cy="396.5" r="183.1"/>
		<circle fill="#F0C33F" cx="612.7" cy="396.5" r="182"/>
		<circle fill="#F0C340" cx="612.7" cy="396.4" r="181"/>
		<circle fill="#F0C441" cx="612.7" cy="396.4" r="179.9"/>
		<circle fill="#F0C442" cx="612.7" cy="396.4" r="178.9"/>
		<circle fill="#F0C543" cx="612.6" cy="396.4" r="177.9"/>
		<circle fill="#F0C544" cx="612.6" cy="396.4" r="176.8"/>
		<circle fill="#F0C645" cx="612.6" cy="396.4" r="175.8"/>
		<circle fill="#F0C646" cx="612.6" cy="396.3" r="174.8"/>
		<circle fill="#EFC747" cx="612.6" cy="396.3" r="173.7"/>
		<circle fill="#EFC748" cx="612.6" cy="396.3" r="172.7"/>
		<circle fill="#EFC849" cx="612.6" cy="396.3" r="171.6"/>
		<circle fill="#EFC84A" cx="612.6" cy="396.3" r="170.6"/>
		<circle fill="#EFC94B" cx="612.6" cy="396.3" r="169.6"/>
		<circle fill="#EFC94C" cx="612.6" cy="396.2" r="168.5"/>
	</g>
	<g>
		<path fill="#FFFFFF" d="M612,579.3c-24.6,0-48.6-4.8-71.1-14.3c-21.7-9.2-41.3-22.4-58-39.1c-16.8-16.8-29.9-36.3-39.1-58
			c-9.5-22.5-14.3-46.4-14.3-71.1c0-24.6,4.8-48.6,14.3-71.1c9.2-21.7,22.4-41.3,39.1-58c16.8-16.8,36.3-29.9,58-39.1
			c22.5-9.5,46.4-14.3,71.1-14.3c24.6,0,48.6,4.8,71.1,14.3c21.7,9.2,41.3,22.4,58,39.1c16.8,16.8,29.9,36.3,39.1,58
			c9.5,22.5,14.3,46.4,14.3,71.1c0,24.6-4.8,48.6-14.3,71.1c-9.2,21.7-22.4,41.3-39.1,58c-16.8,16.8-36.3,29.9-58,39.1
			C660.5,574.5,636.6,579.3,612,579.3z M612,224c-46.2,0-89.6,18-122.2,50.6s-50.6,76-50.6,122.2s18,89.6,50.6,122.2
			s76,50.6,122.2,50.6s89.6-18,122.2-50.6s50.6-76,50.6-122.2s-18-89.6-50.6-122.2S658.1,224,612,224z"/>
	</g>
	<g>
		<path fill="#FFFFFF" d="M714.1,497.5c-0.2-0.4-0.4-0.9-0.5-1.3c-0.2-0.5-0.4-1-0.6-1.5c-0.2-0.6-0.5-1.1-0.7-1.7
			c-0.3-0.6-0.5-1.3-0.8-1.9c-0.3-0.7-0.6-1.4-0.8-2.1c-0.3-0.8-0.6-1.5-0.9-2.3c-0.3-0.8-0.7-1.6-1-2.4c-0.4-0.9-0.7-1.7-1.1-2.6
			c-0.4-0.9-0.7-1.8-1.1-2.8c-0.4-1-0.8-1.9-1.2-2.9s-0.8-2-1.2-3.1s-0.9-2.1-1.3-3.2c-0.5-1.1-0.9-2.2-1.4-3.3
			c-0.5-1.2-0.9-2.3-1.4-3.5s-1-2.4-1.5-3.6s-1-2.5-1.5-3.7c-0.5-1.3-1-2.5-1.6-3.8c-0.5-1.3-1.1-2.6-1.6-3.9s-1.1-2.7-1.6-4
			c-0.6-1.4-1.1-2.7-1.7-4.1c-0.6-1.4-1.1-2.8-1.7-4.2c-0.6-1.4-1.2-2.8-1.7-4.2c-0.6-1.4-1.2-2.9-1.8-4.3c-0.6-1.5-1.2-2.9-1.8-4.4
			s-1.2-3-1.8-4.4c-0.6-1.5-1.2-3-1.8-4.5s-1.2-3-1.8-4.5s-1.2-3-1.9-4.6c-0.6-1.5-1.3-3.1-1.9-4.6c-0.6-1.5-1.3-3.1-1.9-4.6
			c-0.6-1.5-1.3-3.1-1.9-4.6c-0.6-1.5-1.3-3.1-1.9-4.6c-0.6-1.5-1.3-3.1-1.9-4.6c-0.6-1.5-1.3-3.1-1.9-4.6c-0.6-1.5-1.3-3.1-1.9-4.6
			c-0.6-1.5-1.3-3.1-1.9-4.6c-0.6-1.5-1.3-3.1-1.9-4.6c-0.6-1.5-1.2-3-1.9-4.6c-0.6-1.5-1.2-3-1.9-4.5c-0.6-1.5-1.2-3-1.8-4.5
			s-1.2-3-1.8-4.4c-0.6-1.5-1.2-2.9-1.8-4.4c-0.6-1.4-1.2-2.9-1.8-4.3s-1.2-2.8-1.7-4.3c-0.6-1.4-1.1-2.8-1.7-4.2
			c-0.6-1.4-1.1-2.7-1.7-4.1c-0.5-1.3-1.1-2.7-1.6-4s-1.1-2.6-1.6-3.9s-1-2.6-1.6-3.8c-0.5-1.2-1-2.5-1.5-3.7s-1-2.4-1.5-3.6
			s-1-2.3-1.4-3.5c-0.5-1.1-0.9-2.2-1.4-3.4c-0.4-1.1-0.9-2.2-1.3-3.2c-0.4-1-0.8-2.1-1.3-3.1c-0.4-1-0.8-2-1.2-3
			c-0.4-0.9-0.8-1.9-1.1-2.8c-0.4-0.9-0.7-1.8-1.1-2.6c-0.3-0.8-0.7-1.7-1-2.5s-0.6-1.5-0.9-2.3c-0.3-0.7-0.6-1.4-0.9-2.1
			c-2.1-5.1-4.3-10-7.1-14.7c-0.5-0.8-1.1-1.5-1.7-2.2c-0.8-0.9-1.8-1.7-3-1.8c-1.4-0.1-2.5,0.6-3.4,1.6c-0.7,0.7-1.4,1.6-1.9,2.4
			c-2.6,3.8-4.3,7.9-6,12.1c-0.4,0.9-0.7,1.7-1.1,2.6c-0.4,1-0.8,2-1.2,3c-0.4,1.1-0.9,2.2-1.3,3.3c-0.5,1.2-1,2.4-1.5,3.6
			c-0.5,1.3-1.1,2.6-1.6,3.9c-0.6,1.4-1.1,2.8-1.7,4.2c-0.6,1.5-1.2,2.9-1.8,4.4c-0.6,1.6-1.3,3.1-1.9,4.7c-0.7,1.6-1.3,3.3-2,4.9
			c-0.7,1.7-1.4,3.4-2.1,5.1c-0.7,1.8-1.4,3.5-2.2,5.3c-0.7,1.8-1.5,3.6-2.2,5.5c-0.8,1.9-1.5,3.7-2.3,5.6s-1.6,3.8-2.4,5.8
			c-0.8,2-1.6,3.9-2.4,5.9c-0.8,2-1.6,4-2.5,6c-0.8,2-1.7,4.1-2.5,6.1c-0.8,2.1-1.7,4.1-2.5,6.2s-1.7,4.2-2.5,6.2
			c-0.9,2.1-1.7,4.2-2.6,6.3c-0.9,2.1-1.7,4.2-2.6,6.3c-0.9,2.1-1.7,4.2-2.6,6.3c-0.9,2.1-1.7,4.2-2.6,6.3c-0.9,2.1-1.7,4.2-2.6,6.3
			c-0.9,2.1-1.7,4.2-2.6,6.3c-0.8,2.1-1.7,4.1-2.5,6.2c-0.8,2-1.7,4.1-2.5,6.1s-1.7,4-2.5,6.1c-0.8,2-1.6,4-2.4,6
			c-0.8,1.9-1.6,3.9-2.4,5.8c-0.8,1.9-1.6,3.8-2.3,5.7c-0.8,1.9-1.5,3.7-2.3,5.6c-0.7,1.8-1.5,3.6-2.2,5.4c-0.7,1.7-1.4,3.5-2.1,5.2
			c-0.7,1.7-1.4,3.3-2,5c-0.7,1.6-1.3,3.2-2,4.8c-0.6,1.5-1.2,3-1.9,4.6c-0.6,1.4-1.2,2.9-1.8,4.3c-0.5,1.3-1.1,2.7-1.6,4
			s-1,2.5-1.5,3.8c-0.5,1.2-0.9,2.3-1.4,3.5c-0.4,1-0.9,2.1-1.3,3.1c-0.4,0.9-0.8,1.9-1.1,2.8c-0.5,1.3-1.1,2.7-1.7,4
			c-0.5,1.2-1.1,2.4-1.5,3.8c-0.1,0.3-0.2,0.6-0.1,0.8c0.4,0.8,1.8,0.7,2.5,0.7c1.7,0,3.4,0.1,5.2,0.1c0.8,0,1.7,0,2.5,0
			c1.8,0,3.2-0.4,4-2.3c0.2-0.5,0.4-1.2,0.6-1.7c0.3-0.8,0.7-1.7,1-2.5c0.4-1.1,0.9-2.2,1.3-3.3c0.5-1.3,1.1-2.7,1.6-4.1
			c0.6-1.6,1.3-3.2,1.9-4.8c0.7-1.8,1.4-3.6,2.2-5.4c0.8-2,1.6-4,2.4-6c0.9-2.2,1.7-4.4,2.6-6.5c0.9-2.3,1.9-4.7,2.8-7
			c1-2.5,2-5,3-7.5c1-2.6,2.1-5.2,3.1-7.9c1.1-2.7,2.2-5.5,3.3-8.2c1.1-2.8,2.3-5.6,3.4-8.5c1.2-2.9,2.3-5.8,3.5-8.7
			c1.2-3,2.4-5.9,3.5-8.9c1.2-3,2.4-6,3.6-9c1.2-3,2.4-6,3.6-9.1c1.2-3,2.4-6.1,3.6-9.1c1.2-3,2.4-6,3.6-9c1.2-3,2.4-6,3.6-9
			c1.2-2.9,2.3-5.9,3.5-8.8c1.1-2.9,2.3-5.7,3.4-8.6c1.1-2.8,2.2-5.6,3.3-8.4c1.1-2.7,2.1-5.4,3.2-8.1c1-2.6,2-5.1,3.1-7.7
			c1-2.4,1.9-4.9,2.9-7.3c0.9-2.3,1.8-4.6,2.7-6.8c0.8-2.1,1.7-4.2,2.5-6.3c0.8-1.9,1.5-3.8,2.3-5.8c0.7-1.7,1.4-3.4,2.1-5.1
			c0.6-1.5,1.2-3,1.8-4.5c0.4-1.1,0.9-2.2,1.3-3.3c0.3-0.7,0.6-1.3,0.8-2c0.3-0.6,0.4-1.3,1-1.7c0.3-0.2,0.7-0.4,1-0.4
			c0.9,0,1.4,0.7,1.7,1.4c0.5,0.9,0.9,1.9,1.2,2.8c0.3,0.6,0.5,1.3,0.8,1.9c0.3,0.7,0.6,1.4,0.8,2.1c0.3,0.8,0.6,1.5,0.9,2.3
			c0.3,0.8,0.7,1.7,1,2.5c0.4,0.9,0.7,1.8,1.1,2.7c0.4,0.9,0.8,1.9,1.1,2.8c0.4,1,0.8,2,1.2,3c0.4,1.1,0.8,2.1,1.3,3.2
			c0.4,1.1,0.9,2.2,1.3,3.3c0.5,1.1,0.9,2.3,1.4,3.4c0.5,1.2,1,2.4,1.4,3.6c0.5,1.2,1,2.5,1.5,3.7c0.5,1.3,1,2.6,1.5,3.8
			c0.5,1.3,1,2.6,1.6,3.9c0.5,1.3,1.1,2.7,1.6,4c0.5,1.4,1.1,2.8,1.6,4.1c0.6,1.4,1.1,2.8,1.7,4.2c0.6,1.4,1.1,2.9,1.7,4.3
			c0.6,1.5,1.2,2.9,1.7,4.4c0.6,1.5,1.2,3,1.8,4.4c0.6,1.5,1.2,3,1.8,4.5s1.2,3,1.8,4.6c0.6,1.5,1.2,3.1,1.8,4.6s1.2,3.1,1.9,4.6
			c0.6,1.6,1.2,3.1,1.9,4.7c0.6,1.6,1.2,3.1,1.9,4.7c0.6,1.6,1.3,3.1,1.9,4.7c0.6,1.6,1.3,3.1,1.9,4.7c0.6,1.6,1.3,3.1,1.9,4.7
			c0.6,1.6,1.3,3.1,1.9,4.7c0.6,1.6,1.2,3.1,1.9,4.7c0.6,1.6,1.2,3.1,1.9,4.7c0.6,1.6,1.2,3.1,1.9,4.7c0.6,1.5,1.2,3.1,1.8,4.6
			s1.2,3,1.8,4.6c0.6,1.5,1.2,3,1.8,4.5s1.2,3,1.8,4.5s1.2,2.9,1.8,4.4c0.6,1.4,1.1,2.9,1.7,4.3c0.6,1.4,1.1,2.8,1.7,4.2
			c0.6,1.4,1.1,2.8,1.7,4.2c0.5,1.4,1.1,2.7,1.6,4.1c0.5,1.3,1.1,2.6,1.6,4c0.5,1.3,1,2.6,1.5,3.9c0.5,1.2,1,2.5,1.5,3.7
			s1,2.4,1.4,3.6c0.5,1.2,0.9,2.3,1.4,3.5c0.4,1.1,0.9,2.2,1.3,3.3c0.4,1.1,0.9,2.1,1.3,3.2c0.4,1,0.8,2,1.2,3s0.8,1.9,1.2,2.9
			c0.4,0.9,0.7,1.8,1.1,2.7c0.3,0.8,0.7,1.7,1,2.5s0.6,1.6,0.9,2.4c0.3,0.7,0.6,1.4,0.9,2.2c0.3,0.7,0.5,1.3,0.8,2
			c0.2,0.6,0.5,1.2,0.7,1.8c0.2,0.5,0.4,1,0.6,1.6c0.2,0.4,0.4,0.9,0.5,1.3s0.3,0.7,0.4,1.1c0.3,0.8,0.7,1.9,1.7,2.1
			c1.8,0.3,3.8,0.3,5.7,0.3c1,0,2.1,0,3.1,0c0.8,0,1.5-0.1,2.3-0.2c0.3-0.1,0.7-0.3,0.9-0.5l0.1-0.1
			C715,499.3,714.4,498.2,714.1,497.5z"/>
		<polygon fill="#FFFFFF" points="631.1,412.6 613.8,384.9 594,413.2 580.3,391.5 571.7,396.9 593.5,431.8 613.3,403.5 631.5,432.5 
			652.7,395.5 643.9,390.4 		"/>
	</g>
</g>
</svg>
