<?xml version="1.0" encoding="utf-8"?>
<!-- Generator: Adobe Illustrator 18.1.1, SVG Export Plug-In . SVG Version: 6.00 Build 0)  -->
<!DOCTYPE svg PUBLIC "-//W3C//DTD SVG 1.1//EN" "http://www.w3.org/Graphics/SVG/1.1/DTD/svg11.dtd">
<svg version="1.1" id="Layer_1" xmlns="http://www.w3.org/2000/svg" xmlns:xlink="http://www.w3.org/1999/xlink" x="0px" y="0px"
	 viewBox="120.6 98.2 718.9 418.8" enable-background="new 120.6 98.2 718.9 418.8" xml:space="preserve">
<path fill="#FFFFFF" d="M308.7,340.1c16.1-16.6,31.4-33.8,46.3-51.4c6.2-7.3,12.3-14.6,18.3-22l-151-151
	c-23.3-23.3-60.9-23.3-84.2,0s-23.3,60.9,0,84.2l155.7,155.6C298.8,350.3,303.8,345.3,308.7,340.1z"/>
<path fill="#FFFFFF" d="M582,275.3c14,17.1,30.6,32,47.9,45.7c13.5,10.3,27.5,19.9,41.6,29.4L822,199.9c23.3-23.3,23.3-60.9,0-84.2
	s-60.9-23.3-84.2,0L580.5,273.2C581,273.9,581.5,274.6,582,275.3z"/>
<path fill="#FFFFFF" d="M725.6,281.4c-27.1-19.4-54.3-40.1-76.2-65.4c-1.8-2.1-3.6-4.2-5.4-6.3l-163.9,164L309.7,203.2
	c-16,19.6-32.3,38.9-49.5,57.3c-9.9,10.6-20,20.9-30.1,31.2l208,207.9c23.3,23.3,60.9,23.3,84.2,0l212.1-212.1
	C731.4,285.5,728.5,283.4,725.6,281.4z"/>
</svg>
